<?xml version="1.0" encoding="UTF-8"?>
<!DOCTYPE svg PUBLIC "-//W3C//DTD SVG 1.1//EN" "http://www.w3.org/Graphics/SVG/1.1/DTD/svg11.dtd">
<svg xmlns="http://www.w3.org/2000/svg" version="1.1" width="283px" height="283px" style="shape-rendering:geometricPrecision; text-rendering:geometricPrecision; image-rendering:optimizeQuality; fill-rule:evenodd; clip-rule:evenodd" xmlns:xlink="http://www.w3.org/1999/xlink">
<g><path style="opacity:0.988" fill="#482160" d="M 72.5,6.5 C 94.1952,13.1814 114.195,23.3481 132.5,37C 151.133,52.1085 163.3,71.2752 169,94.5C 170.572,106.22 169.239,117.553 165,128.5C 164.617,129.056 164.117,129.389 163.5,129.5C 145.275,118.981 125.608,112.648 104.5,110.5C 101.169,128.383 102.002,146.05 107,163.5C 113.833,179.667 125.333,191.167 141.5,198C 179.673,211.123 214.34,205.123 245.5,180C 249.416,176.59 252.749,172.757 255.5,168.5C 256.167,168.5 256.5,168.167 256.5,167.5C 257.167,167.5 257.5,167.167 257.5,166.5C 264.518,159.168 269.851,150.835 273.5,141.5C 272.782,150.821 269.949,159.488 265,167.5C 251.627,187.876 235.127,205.376 215.5,220C 181.814,246.505 143.814,263.839 101.5,272C 62.3651,280.353 35.8651,265.853 22,228.5C 14.9874,208.426 10.9874,187.759 10,166.5C 6.74909,125.419 11.7491,85.4188 25,46.5C 30.2713,32.7511 38.7713,21.5844 50.5,13C 57.3326,9.11108 64.6659,6.94441 72.5,6.5 Z"/></g>
<g><path style="opacity:0.984" fill="#db5816" d="M 72.5,6.5 C 119.458,7.20833 162.124,21.0417 200.5,48C 221.641,63.664 240.808,81.4974 258,101.5C 265.114,110.395 270.114,120.395 273,131.5C 273.498,134.817 273.665,138.15 273.5,141.5C 269.851,150.835 264.518,159.168 257.5,166.5C 256.833,166.5 256.5,166.833 256.5,167.5C 255.833,167.5 255.5,167.833 255.5,168.5C 224.355,193.739 189.688,199.906 151.5,187C 142.704,182.854 134.87,177.354 128,170.5C 125.709,167.165 126.209,164.332 129.5,162C 144.93,155.402 156.263,144.569 163.5,129.5C 164.117,129.389 164.617,129.056 165,128.5C 169.239,117.553 170.572,106.22 169,94.5C 163.3,71.2752 151.133,52.1085 132.5,37C 114.195,23.3481 94.1952,13.1814 72.5,6.5 Z"/></g>
</svg>
